# xmcd
#
# Track frame offsets:
#	150
#	28582
#	68829
#	96377
#	118617
#	143928
#	165417
#	192752
#	216538
#	240397
#
# Disc length: 3606 seconds
#
# Revision: 3160157947
# Processed by: cddbd v1.5.2PL0 Copyright (c) Steve Scherf et al.
# Submitted via: EZCDAudioConverter 8.5.0.1
#
DISCID=8c0e140a
DTITLE=V/A - 80s Synthpop 2/3
DYEAR=2014
DGENRE=
TTITLE0=Talk Talk - It's My Life [Extended Mix]
TTITLE1=Bronski Beat - Smalltown Boy [12" Version]
TTITLE2=Fun Boy Three - Our Lips Are Sealed [Special Remix Version]
TTITLE3=Bananarama - Cruel Summer [12" Version]
TTITLE4=Fine Young Cannibals - Johnny Come Home [12" Version]
TTITLE5=Echo and The Bunnymen - Never Stop (Discothéque)
TTITLE6=Vicious Pink - Cccan't You See [Exxx-Tended Mixxx]
TTITLE7=Mari Wilson - Just What I Always Wanted [12" Mix]
TTITLE8=Dream Academy - Life In A Northern Town [Extended Version]
TTITLE9=Midge Ure - If I Was [Extended Mix]
EXTD=
EXTT0=
EXTT1=
EXTT2=
EXTT3=
EXTT4=
EXTT5=
EXTT6=
EXTT7=
EXTT8=
EXTT9=
PLAYORDER=
